<svg xmlns="http://www.w3.org/2000/svg" viewBox="0 0 40 40">
  <path fill="#8b8dc5" d="M31.48 28.01s1.36-1.42.44-7.47c-1-6.56 7.28-14.27 7.28-14.27s-13.59.55-11.72 7.78c0 0 2.03-5.21-5.72-9.98 0 0-8.72 9.48-4.8 12.61 0 0-7.66-1.11-16.17 7.37 0 0 1.51-.44 7.84 1.46 0 0-4.47 2.36-7.01 8.83 0 0 7.82-3.29 11.45-2.39 3.33.82 8.51 2.79 9.47 2.11s8.3-5.29 8.3-5.29"/>
  <path fill="#e8e5cf" d="m23.02 18.19-3.91.8-2.43 3.76-1.4-1.94 6.35-4.56 1.39 1.94z"/>
  <path fill="#788f3a" d="m29.75 28.55-4.1-.11-1.15 3.99c-.39.29-4.62-.67-4.14-.02l8.99 3.37c.48.65 2.72-.92 2.24-1.57l-.8-9.34c-.48-.65-.65 3.39-1.05 3.68z"/>
</svg>
