<?xml version="1.0" encoding="UTF-8"?>
<svg id="_图层_1" data-name="图层 1" xmlns="http://www.w3.org/2000/svg" xmlns:xlink="http://www.w3.org/1999/xlink" viewBox="0 0 40 40">
  <defs>
    <style>
      .cls-1 {
        fill: #e8e5cf;
      }

      .cls-2 {
        fill: #f1f2f2;
      }

      .cls-3 {
        fill: #788f3a;
      }

      .cls-4 {
        fill: #8b8dc5;
      }

      .cls-5 {
        fill: none;
      }

      .cls-6 {
        clip-path: url(#clippath);
      }
    </style>
    <clipPath id="clippath">
      <circle class="cls-5" cx="-22.75" cy="62.75" r="17.35"/>
    </clipPath>
  </defs>
  <g class="cls-6">
    <g>
      <path class="cls-2" d="M-1.11,31.02c-47.46,6.56-.05-66.38,1.22-1.97l-1.22,1.97Z"/>
      <path class="cls-2" d="M2.52,29.15C-8.21,18.72-6.46-8.76,13.36-7.42c0,0,14.13,6.9,2.51,23.58-11.39,16.35-10.97,13.23-10.97,13.23l-2.38-.24Z"/>
      <path class="cls-2" d="M2.2,36.09c-1.54-10.29,30.63-41.34,30.8-13.54,0,0,2.67,16.52-12.52,19.18-24.6,2.58-11.93.76-18.28-5.64Z"/>
      <path class="cls-2" d="M7.88,38.57c8.9-2.79,15.37,13.45,1.54,20.19-12.39,6.01-23.93,4.81-18-11.59C3.94,31.68-.66,36.52-.66,36.52l8.54,2.05Z"/>
      <path class="cls-2" d="M.35,40.03c-6.89,63.46-60,19.99-2.52-4.94l2.52,4.94Z"/>
    </g>
  </g>
  <g>
    <path class="cls-4" d="M31.48,28.01s1.36-1.42.44-7.47c-1-6.56,7.28-14.27,7.28-14.27,0,0-13.59.55-11.72,7.78,0,0,2.03-5.21-5.72-9.98,0,0-8.72,9.48-4.8,12.61,0,0-7.66-1.11-16.17,7.37,0,0,1.51-.44,7.84,1.46,0,0-4.47,2.36-7.01,8.83,0,0,7.82-3.29,11.45-2.39,3.33.82,8.51,2.79,9.47,2.11s8.3-5.29,8.3-5.29"/>
    <polygon class="cls-1" points="23.02 18.19 19.11 18.99 16.68 22.75 15.28 20.81 21.63 16.25 23.02 18.19"/>
    <path class="cls-3" d="M29.75,28.55l-4.1-.11-1.15,3.99c-.39.29-4.62-.67-4.14-.02l8.99,3.37c.48.65,2.72-.92,2.24-1.57l-.8-9.34c-.48-.65-.65,3.39-1.05,3.68Z"/>
  </g>
</svg>